:SAMPLES-PER-SECOND 30
:FULLY-SPECIFIED
:DEGREES
370
root  42.7012 35.0545 0.752581 40.297 85.8365 39.9133
RightUpLeg  -37.7396 0.844568 -10.6203
RightLeg  42.0446 5.27686 4.80296
RightFoot  -6.75196 -0.304583 6.31756
RightToes  -5.8209e-011 0 -3.6325e-017
Spine  39.9403 -1.98315 4.8152
Spine1  2.51415 0.36271 -4.55414
HEad  -48.6014 2.24894 -8.51456
LeftShoulder1  1.51758 -0.900398 -28.3746
LeftArm  -3.32941 -15.7366 -52.1271
LeftForeArm  36.1644 -67.3487 -23.7782
LeftHand  -0.257304 1.87161 8.31325
RightShoulder  0.493375 -1.80084 23.0749
RightArm  -20.2584 17.3425 41.8216
RightForeArm  17.2824 69.8741 31.384
RightHand  -1.27321 9.36837 -10.3591
LeftUpLeg  -38.7887 13.2294 1.27343
LeftLeg  52.1287 -8.88039 -11.6317
LeftFoot  -2.26505 0.410018 -5.20845
LeftToes  -8.31281e-010 4.41007e-011 3.74621e-011
371
root  43.0691 34.1198 0.809066 57.267 87.5286 58.9888
RightUpLeg  -38.5684 -1.07529 -10.2183
RightLeg  49.4265 4.84086 5.69712
RightFoot  -8.08245 -0.143408 3.0833
RightToes  -5.8209e-011 0 -3.6325e-017
Spine  40.618 -2.72444 6.65768
Spine1  2.21199 -0.0990328 -4.02873
HEad  -49.0069 1.26347 -7.68959
LeftShoulder1  1.56326 -1.24123 -26.7986
LeftArm  -6.81624 -19.5765 -52.3105
LeftForeArm  40.6876 -69.9447 -27.2128
LeftHand  -0.294897 1.5612 8.82378
RightShoulder  0.549675 -1.46263 20.871
RightArm  -26.5135 24.1331 38.1698
RightForeArm  15.9783 69.2369 30.257
RightHand  -1.21811 8.77363 -10.3252
LeftUpLeg  -41.2617 10.9952 3.88436
LeftLeg  60.5147 -7.88229 -14.0813
LeftFoot  -2.96567 1.07003 -14.3381
LeftToes  -8.31281e-010 4.41007e-011 3.74621e-011
372
root  43.4667 33.2127 0.967513 50.093 86.6069 53.9274
RightUpLeg  -39.6587 -0.30987 -10.3589
RightLeg  56.1196 4.25381 6.33762
RightFoot  -10.5648 -0.0832118 1.97123
RightToes  -5.8209e-011 0 -3.6325e-017
Spine  40.5351 -1.488 6.02615
Spine1  2.37653 1.16127 -4.07865
HEad  -49.5368 0.197782 -6.80515
LeftShoulder1  1.53289 -1.22376 -26.2834
LeftArm  -9.89134 -25.3366 -51.5409
LeftForeArm  41.8612 -70.8757 -28.852
LeftHand  -0.314984 1.73225 9.86929
RightShoulder  0.659524 -0.776615 17.7757
RightArm  -34.4751 29.9353 33.9949
RightForeArm  16.9769 69.7531 31.1624
RightHand  -1.2071 7.83959 -10.894
LeftUpLeg  -41.1597 10.0526 6.17294
LeftLeg  64.9759 -5.76375 -12.6916
LeftFoot  -3.95066 0.809587 -11.8591
LeftToes  -8.31281e-010 4.41007e-011 3.74621e-011
373
root  43.9271 32.5171 1.17248 22.2119 84.2251 27.2803
RightUpLeg  -41.1391 3.58913 -9.78324
RightLeg  60.9824 3.17198 5.67367
RightFoot  -12.1958 -0.0707228 1.53142
RightToes  -5.8209e-011 0 -3.6325e-017
Spine  38.9872 0.357306 5.58886
Spine1  3.02604 3.63461 -6.07365
HEad  -51.1561 -1.10253 -5.5979
LeftShoulder1  1.61823 -1.67747 -25.0134
LeftArm  -13.8537 -32.2184 -49.6732
LeftForeArm  39.148 -70.0151 -27.7478
LeftHand  -0.312985 1.74853 9.82801
RightShoulder  0.756194 0.0177553 14.7248
RightArm  -43.5921 35.6944 29.305
RightForeArm  18.1896 69.7222 30.8578
RightHand  -0.984017 6.97166 -9.58188
LeftUpLeg  -38.1312 11.2083 8.717
LeftLeg  64.4302 -5.77946 -12.3524
LeftFoot  -10.5497 0.129613 -7.13397
LeftToes  -8.31281e-010 4.41007e-011 3.74621e-011
374
root  44.3214 31.9146 1.1888 7.14484 83.7983 12.0289
RightUpLeg  -42.6646 5.21636 -8.31745
RightLeg  64.287 2.44733 4.9589
RightFoot  -14.1849 -0.0602269 1.44258
RightToes  -5.8209e-011 0 -3.6325e-017
Spine  36.2056 0.419405 7.53716
Spine1  3.3353 4.88492 -8.49102
HEad  -51.9793 -0.914679 -5.73076
LeftShoulder1  1.68221 -2.35808 -22.4754
LeftArm  -19.0692 -39.1713 -49.0706
LeftForeArm  32.3857 -65.9071 -22.3656
LeftHand  -0.3644 1.35466 10.4252
RightShoulder  0.748985 0.50024 11.5506
RightArm  -52.5418 41.68 23.8809
RightForeArm  13.5554 67.1838 27.04
RightHand  -0.875873 7.67936 -8.12142
LeftUpLeg  -37.0949 11.537 10.3034
LeftLeg  65.3605 -5.06383 -11.232
LeftFoot  -18.1328 -0.131785 -3.64576
LeftToes  -8.31281e-010 4.41007e-011 3.74621e-011
375
root  44.2707 31.7704 1.15431 8.65436 85.0208 13.0087
RightUpLeg  -43.2974 4.93752 -8.5041
RightLeg  64.8046 1.99929 4.05698
RightFoot  -14.9123 -0.0623257 1.22129
RightToes  -5.8209e-011 0 -3.6325e-017
Spine  36.8825 0.0361522 8.00021
Spine1  -0.524653 4.60388 -9.73797
HEad  -50.4273 -1.71445 -4.22364
LeftShoulder1  1.89816 -4.02155 -18.6498
LeftArm  -23.8899 -44.9779 -48.1577
LeftForeArm  26.3052 -60.3814 -17.6028
LeftHand  -0.369794 1.17338 10.1318
RightShoulder  0.691827 1.00014 8.05673
RightArm  -60.8832 45.8743 16.9505
RightForeArm  3.55671 61.0986 20.7519
RightHand  -1.00483 7.8112 -9.16036
LeftUpLeg  -38.6266 10.4035 9.44353
LeftLeg  65.7169 -3.90923 -8.75012
LeftFoot  -17.782 0.0378852 -1.20744
LeftToes  -8.31281e-010 4.41007e-011 3.74621e-011
376
root  44.0508 32.2063 1.21072 14.476 84.7043 17.1884
RightUpLeg  -44.1045 5.99441 -9.01045
RightLeg  62.2564 1.72704 3.01084
RightFoot  -13.8718 -0.079431 0.654892
RightToes  -5.8209e-011 0 -3.6325e-017
Spine  37.5436 1.19606 6.75769
Spine1  -3.34338 5.34094 -9.83813
HEad  -51.6207 -1.86249 -3.86052
LeftShoulder1  2.12366 -5.74121 -16.2347
LeftArm  -27.9036 -51.7496 -47.2526
LeftForeArm  23.3767 -52.1532 -12.6656
LeftHand  -0.36164 1.36832 10.388
RightShoulder  0.651213 2.46306 2.76364
RightArm  -69.5686 47.2451 9.4603
RightForeArm  -2.90414 52.892 15.1939
RightHand  -1.17911 8.92319 -10.0539
LeftUpLeg  -38.8076 9.91683 8.67176
LeftLeg  62.2421 -3.94837 -7.5126
LeftFoot  -17.3786 0.0148883 -1.69641
LeftToes  -8.31281e-010 4.41007e-011 3.74621e-011
377
root  43.6892 33.0933 1.11684 19.0793 84.1952 18.9259
RightUpLeg  -44.8179 5.88329 -9.65225
RightLeg  56.9375 2.0596 2.98511
RightFoot  -13.2957 -0.0778605 0.612915
RightToes  -5.8209e-011 0 -3.6325e-017
Spine  38.3999 1.34312 6.91733
Spine1  -6.39434 5.82283 -12.3478
HEad  -52.543 -3.06025 -3.5983
LeftShoulder1  2.30197 -7.78013 -13.4447
LeftArm  -32.0083 -57.6679 -44.6962
LeftForeArm  15.7954 -41.8373 -8.95796
LeftHand  -0.325807 1.89631 10.6791
RightShoulder  0.546047 3.63642 -0.885087
RightArm  -75.7013 48.8022 4.88612
RightForeArm  -5.54646 44.0684 11.1792
RightHand  -1.04154 5.23651 -11.5494
LeftUpLeg  -39.6128 9.4989 7.32426
LeftLeg  56.8077 -3.75792 -5.63173
LeftFoot  -14.9808 0.0401466 -1.53973
LeftToes  -8.31281e-010 4.41007e-011 3.74621e-011
378
root  43.3301 34.3566 1.11475 22.2 82.1926 19.5027
RightUpLeg  -44.1156 7.02363 -10.3733
RightLeg  49.7178 1.96198 2.1541
RightFoot  -15.2432 -0.0613847 1.23423
RightToes  -5.8209e-011 0 -3.6325e-017
Spine  39.9377 1.90503 6.74831
Spine1  -8.9957 6.73519 -16.014
HEad  -53.9676 -4.36652 -2.69298
LeftShoulder1  2.28034 -10.058 -9.46405
LeftArm  -35.9501 -61.1798 -41.5269
LeftForeArm  11.0791 -33.1617 -6.69309
LeftHand  -0.293613 1.8598 9.44294
RightShoulder  0.525199 5.35053 -2.90544
RightArm  -80.591 50.0099 1.65795
RightForeArm  -8.3544 35.4139 8.50807
RightHand  -0.792939 6.20778 -8.29447
LeftUpLeg  -38.2021 12.2697 5.62537
LeftLeg  49.1258 -4.20529 -4.69282
LeftFoot  -14.0675 0.0495998 -1.41529
LeftToes  -8.31281e-010 4.41007e-011 3.74621e-011
379
root  43.0383 35.5518 1.08468 23.7557 81.8894 18.2699
RightUpLeg  -42.8987 7.06558 -10.5027
RightLeg  42.1004 1.57232 1.23761
RightFoot  -15.4422 -0.0522732 1.46977
RightToes  -5.8209e-011 0 -3.6325e-017
Spine  40.6449 1.26608 8.04921
Spine1  -10.8131 7.01946 -20.4119
HEad  -54.9231 -6.02633 -1.25446
LeftShoulder1  2.12808 -12.566 -5.43087
LeftArm  -38.569 -63.0171 -37.9401
LeftForeArm  11.5732 -27.2785 -5.30161
LeftHand  -0.176853 3.111 8.82535
RightShoulder  0.60201 6.68137 -2.91152
RightArm  -84.083 51.9968 -2.11344
RightForeArm  -12.0459 26.6716 6.05595
RightHand  -0.684761 7.88516 -6.31768
LeftUpLeg  -37.3845 14.9777 4.39254
LeftLeg  41.765 -4.27655 -3.71852
LeftFoot  -14.999 0.0171282 -2.31105
LeftToes  -8.31281e-010 4.41007e-011 3.74621e-011
380
root  42.8151 36.3477 1.09764 28.9508 82.7261 20.6958
RightUpLeg  -42.0629 5.78925 -10.3053
RightLeg  36.6217 2.18785 1.47246
RightFoot  -12.272 -0.0683433 3.95466
RightToes  -5.8209e-011 0 -3.6325e-017
Spine  40.8428 0.369353 8.9581
Spine1  -12.9705 6.58855 -23.7266
HEad  -54.2957 -7.2352 -0.0419461
LeftShoulder1  1.92226 -15.0082 -2.1826
LeftArm  -39.0927 -64.3994 -35.319
LeftForeArm  8.13907 -21.79 -3.68896
LeftHand  -0.0370775 5.11623 9.10485
RightShoulder  0.73884 7.90562 -2.24378
RightArm  -78.3996 54.1463 -3.67614
RightForeArm  -22.2322 19.0577 1.39316
RightHand  -0.671235 8.55976 -5.95115
LeftUpLeg  -37.7892 17.3516 2.67106
LeftLeg  36.2336 -1.28743 -0.631132
LeftFoot  -14.6083 0.029948 -1.91951
LeftToes  -8.31281e-010 4.41007e-011 3.74621e-011
381
root  42.662 36.7115 1.29287 34.8513 82.5192 25.0954
RightUpLeg  -41.1108 5.40012 -9.46386
RightLeg  35.1327 4.70181 3.3204
RightFoot  -10.0991 -0.145955 8.33566
RightToes  -5.8209e-011 0 -3.6325e-017
Spine  42.7524 1.36544 7.3545
Spine1  -16.031 6.80628 -24.0257
HEad  -53.8915 -8.88982 1.75901
LeftShoulder1  1.85446 -17.5431 -0.389647
LeftArm  -35.7539 -66.3309 -34.2259
LeftForeArm  0.97039 -16.6986 -0.372871
LeftHand  -0.114346 3.72992 6.86957
RightShoulder  0.832418 8.49687 -1.71346
RightArm  -60.403 56.4054 -4.71921
RightForeArm  -41.0958 11.0339 -4.99172
RightHand  -0.537835 8.55891 -4.87079
LeftUpLeg  -38.0565 21.7597 0.493828
LeftLeg  33.9293 1.41168 1.4222
LeftFoot  -13.0084 0.0613398 -1.30299
LeftToes  -8.31281e-010 4.41007e-011 3.74621e-011
382
root  42.2839 36.6909 1.35857 43.3845 83.3395 32.4178
RightUpLeg  -41.1045 4.04337 -8.2994
RightLeg  35.3166 5.17634 3.68527
RightFoot  -11.6586 -0.0549076 8.01524
RightToes  -5.8209e-011 0 -3.6325e-017
Spine  45.5989 1.34934 6.78751
Spine1  -18.4852 6.05192 -23.2999
HEad  -56.8493 -10.8043 6.91248
LeftShoulder1  1.66514 -18.581 1.06572
LeftArm  -32.5811 -69.5249 -31.5118
LeftForeArm  -10.1436 -12.2616 1.71876
LeftHand  -0.0816572 4.45546 7.8391
RightShoulder  0.889348 8.38046 -1.07805
RightArm  -57.3 58.5774 -8.68334
RightForeArm  -47.9269 3.11415 -4.78441
RightHand  -0.658569 6.61168 -6.70781
LeftUpLeg  -40.0612 23.6651 -1.24667
LeftLeg  36.3022 0.426608 0.767965
LeftFoot  -12.3086 0.0534785 -2.09966
LeftToes  -8.31281e-010 4.41007e-011 3.74621e-011
383
root  41.7917 36.4206 1.28326 50.0269 83.9491 38.0555
RightUpLeg  -43.3973 3.5455 -8.1494
RightLeg  36.5425 4.23631 3.12108
RightFoot  -11.3755 -0.0770976 3.97409
RightToes  -5.8209e-011 0 -3.6325e-017
Spine  49.1607 0.767797 6.58784
Spine1  -20.6501 4.74975 -21.9582
HEad  -60.7311 -10.9179 11.2714
LeftShoulder1  1.49856 -18.3878 1.8395
LeftArm  -35.6399 -72.0281 -27.7892
LeftForeArm  -18.302 -9.30535 3.11037
LeftHand  -0.005887 5.69465 6.58498
RightShoulder  0.775352 9.17074 -2.6665
RightArm  -58.7642 59.048 -9.70374
RightForeArm  -51.848 -1.22379 -5.35459
RightHand  -0.553061 5.74886 -6.12598
LeftUpLeg  -41.8526 23.971 -2.29819
LeftLeg  40.338 2.02649 2.23711
LeftFoot  -11.4492 0.0720779 -0.677372
LeftToes  -8.31281e-010 4.41007e-011 3.74621e-011
